<?xml version="1.0" standalone="no"?><!DOCTYPE svg PUBLIC "-//W3C//DTD SVG 1.1//EN" "http://www.w3.org/Graphics/SVG/1.1/DTD/svg11.dtd"><svg t="1569200887329" class="icon" viewBox="0 0 1024 1024" version="1.1" xmlns="http://www.w3.org/2000/svg" p-id="1988" xmlns:xlink="http://www.w3.org/1999/xlink" width="200" height="200"><defs><style type="text/css"></style></defs><path d="M483.6263 91.889968c0 15.409446 12.551078 27.928915 27.998906 27.928915 104.693919 0 203.126974 40.662874 277.166821 114.519839 74.044362 73.856965 114.811095 172.039406 114.811095 276.466905 0 103.068307-39.780077 200.006703-111.993368 273.506936v-78.013564c0-15.409446-12.521727-27.926657-27.996648-27.926657-15.447828 0-27.998906 12.517211-27.998907 27.926657v167.564457h167.988923c15.474922 0 27.998906-12.514953 27.998906-27.924399 0-15.411703-12.523985-27.928915-27.998906-27.928915h-66.844256c79.235031-83.346474 122.842069-191.89219 122.842069-307.204515 0-119.344746-46.589584-231.561635-131.211712-315.957984-84.59955-84.409895-197.098664-130.884332-316.761759-130.884332-15.452344 0-28.001164 12.517211-28.001164 27.926657M194.876994 826.765869c84.610839 84.414411 197.096406 130.884332 316.745954 130.884332 15.47718 0 27.998906-12.48786 27.998907-27.928915 0-15.40493-12.521727-27.926657-27.998907-27.926657-104.700692 0-203.124717-40.662874-277.141985-114.517582-74.055651-73.856965-114.838188-172.025859-114.838188-276.47142 0-103.063792 39.784592-200.006703 111.993367-273.509194v78.01808c0 15.434281 12.544305 27.926657 27.998907 27.926656 15.470406 0 27.998906-12.492376 27.998906-27.926656V147.74554H119.645032c-15.456859 0-27.996649 12.517211-27.996648 27.928914 0 15.436539 12.542047 27.926657 27.996648 27.926657H186.516382c-79.255351 83.348732-122.866905 191.894448-122.866905 307.204516 0 119.349261 46.621193 231.563893 131.227517 315.960242" fill="#040000" p-id="1989"></path></svg>